<svg id="Redes" xmlns="http://www.w3.org/2000/svg" viewBox="0 0 256 256"><defs><style>.cls-1{fill:#e8e7e7;}</style></defs><path class="cls-1" d="M250.09,138.54H195.2V69H174.93V54.45a25.28,25.28,0,0,0-25.29-25.26h-122A25.26,25.26,0,0,0,2.34,54.45V180.86c0,14,17.84,25.29,31.81,25.29,0,0,2.38,20.66,25.45,20.66s27-20.66,27-20.66h82.71s3.57,20.66,27.05,20.66,25-20.66,25-20.66h21.87a10.35,10.35,0,0,0,10.34-10.35V142.12A3.59,3.59,0,0,0,250.09,138.54ZM60,207.33a9.94,9.94,0,1,1,9.95-9.93A9.94,9.94,0,0,1,60,207.33Zm58.86-89.67H98v20.88a8.95,8.95,0,1,1-17.89,0V117.66H59.2a9,9,0,0,1,0-17.9H80.09V78.9A8.95,8.95,0,1,1,98,78.9V99.76h20.87a9,9,0,0,1,0,17.9Zm77.55,89.67a9.94,9.94,0,1,1,9.93-9.93A9.94,9.94,0,0,1,196.4,207.33Z"/><path class="cls-1" d="M216.28,68.95h10.94a26.44,26.44,0,0,1,26.44,26.44v20.88a0,0,0,0,1,0,0H216.28a0,0,0,0,1,0,0V68.95A0,0,0,0,1,216.28,68.95Z"/></svg>