<svg id="Redes" xmlns="http://www.w3.org/2000/svg" viewBox="0 0 256 256"><defs><style>.cls-1{fill:#e8e7e7;}.cls-2{fill:#972536;}</style></defs><circle class="cls-1" cx="128" cy="128" r="128"/><path class="cls-2" d="M66.15,192a2.5,2.5,0,0,1-1.77-4.26L124.09,128,64.38,68.29a2.5,2.5,0,0,1,3.53-3.53L130,126.84v2.32L67.91,191.24A2.45,2.45,0,0,1,66.15,192Z"/><path class="cls-2" d="M128.51,192a2.5,2.5,0,0,1-1.77-4.26L186.45,128,126.74,68.29a2.5,2.5,0,1,1,3.53-3.53l62.08,62.08v2.32l-62.08,62.08A2.45,2.45,0,0,1,128.51,192Z"/></svg>