<svg id="Redes" xmlns="http://www.w3.org/2000/svg" viewBox="0 0 256 256"><defs><style>.cls-1{fill:#e8e7e7;}</style></defs><path class="cls-1" d="M166,256H90a6.25,6.25,0,0,1-6.25-6.25V178.52a6.25,6.25,0,0,0-6.25-6.25H6.25A6.25,6.25,0,0,1,0,166V90a6.25,6.25,0,0,1,6.25-6.25H77.48a6.25,6.25,0,0,0,6.25-6.25V6.25A6.25,6.25,0,0,1,90,0h76a6.25,6.25,0,0,1,6.25,6.25V77.48a6.25,6.25,0,0,0,6.25,6.25h71.23A6.25,6.25,0,0,1,256,90v76a6.25,6.25,0,0,1-6.25,6.25H178.52a6.25,6.25,0,0,0-6.25,6.25v71.23A6.25,6.25,0,0,1,166,256ZM99.6,246.38h56.8a6.25,6.25,0,0,0,6.25-6.25V168.89a6.24,6.24,0,0,1,6.24-6.24h71.24a6.25,6.25,0,0,0,6.25-6.25V99.6a6.25,6.25,0,0,0-6.25-6.25H168.89a6.24,6.24,0,0,1-6.24-6.24V15.87a6.25,6.25,0,0,0-6.25-6.25H99.6a6.25,6.25,0,0,0-6.25,6.25V87.11a6.24,6.24,0,0,1-6.24,6.24H15.87A6.25,6.25,0,0,0,9.62,99.6v56.8a6.25,6.25,0,0,0,6.25,6.25H87.11a6.24,6.24,0,0,1,6.24,6.24v71.24A6.25,6.25,0,0,0,99.6,246.38Z"/></svg>