<svg id="Redes" xmlns="http://www.w3.org/2000/svg" viewBox="0 0 256 256"><defs><style>.cls-1{fill:#972536;}</style></defs><path class="cls-1" d="M256,92.83v70.34a5.83,5.83,0,0,1-5.83,5.83H174.83a5.83,5.83,0,0,0-5.83,5.83v75.34a5.83,5.83,0,0,1-5.83,5.83H92.83A5.83,5.83,0,0,1,87,250.17V174.83A5.83,5.83,0,0,0,81.17,169H5.83A5.83,5.83,0,0,1,0,163.17V92.83A5.83,5.83,0,0,1,5.83,87H81.17A5.83,5.83,0,0,0,87,81.17V5.83A5.83,5.83,0,0,1,92.83,0h70.34A5.83,5.83,0,0,1,169,5.83V81.17A5.83,5.83,0,0,0,174.83,87h75.34A5.83,5.83,0,0,1,256,92.83Z"/></svg>