<svg xmlns="http://www.w3.org/2000/svg" viewBox="0 0 983.28 137.16"><defs><style>.cls-1{fill:#e8e7e7;}</style></defs><g id="Camada_2" data-name="Camada 2"><g id="Camada_1-2" data-name="Camada 1"><g id="REMOVIP"><path class="cls-1" d="M567.27,108c0,1.63-.14,3.26-.23,5.16H543c-.1-2-.28-3.92-.28-5.84,0-13.84.18-27.67-.08-41.5-.32-17-15-28-30.55-23.42A23.86,23.86,0,0,0,495.3,64.86c-.1,14.17,0,28.34,0,42.5v5.91H470.54c-.11-1.92-.28-3.69-.28-5.46,0-14.16,0-28.33,0-42.5-.05-13.61-10.23-24-23.44-24s-23.52,10.53-23.59,24c-.08,14,0,28,0,42v5.73H398.51c-.09-1.88-.25-3.65-.25-5.43,0-13.67-.14-27.34,0-41C398.53,45.11,408,28.91,428,20.49c19.7-8.3,37.81-4.24,53.39,10.54.36.34.77.62,1.52,1.22,1.15-1,2.31-2.14,3.53-3.17,15.52-13.18,33-16.58,51.65-8.48s28.77,23.16,29.14,43.89C567.49,79,567.28,93.49,567.27,108Z"/><path class="cls-1" d="M978.16,43.2c-9-17.76-28.56-28.57-47.7-26.29-26.06,3.11-43.78,22.64-44,48.92-.2,22.32-.05,44.65,0,67,0,1.44.25,2.88.39,4.36h24.28V107.67c1.71.66,2.77,1,3.8,1.47,20,8.64,41.33,4.13,56.14-11.87C984.13,83.11,987.07,60.87,978.16,43.2ZM934.94,88.85a23.94,23.94,0,0,1-23.76-23.92,23.68,23.68,0,0,1,24-23.61,24,24,0,0,1,23.64,23.56C958.93,77.7,947.83,88.86,934.94,88.85Z"/><path class="cls-1" d="M366.2,64.78c-15.49,4.47-30.87,9.33-46.3,14-1.23.38-2.53.55-4.26.91l-6.5-23.54,26.46-8.32c-4.74-7.77-18.62-8.72-27.57-2-11.49,8.62-13.26,24.07-4,34.76,10.11,11.62,25.42,10.4,38.74-3.46l20.68,12.37a43,43,0,0,1-13.33,14.89,48.69,48.69,0,0,1-54.09,1.77c-17-10.73-25.44-30.15-21.89-50.43,3.21-18.4,18.39-33.95,37.24-38.16,27.53-6.15,54.75,13,58.62,41.12C370.48,62,369.83,63.73,366.2,64.78Z"/><path class="cls-1" d="M643.88,16.41a48.41,48.41,0,0,0-48.23,48.35c0,27.24,21.14,48.65,48.2,48.69a47.87,47.87,0,0,0,48.43-48.4A48.31,48.31,0,0,0,643.88,16.41Zm.17,72.13a23.59,23.59,0,0,1-23.77-23.21,23.68,23.68,0,1,1,47.35-.12A23.45,23.45,0,0,1,644.05,88.54Z"/><path class="cls-1" d="M799.76,16.41,751,114c-16.41-32.81-32.28-64.56-48.8-97.6,6,0,11.16.64,16.07-.14,9.31-1.48,14,2.24,17.22,10.93,4.17,11.18,9.91,21.77,15.34,33.38,1-1.9,1.8-3.1,2.4-4.38,5.65-12.05,11.35-24.08,16.86-36.2,1.21-2.67,2.74-3.72,5.68-3.65C783.36,16.53,791,16.41,799.76,16.41Z"/><path class="cls-1" d="M244.87,16.94V40.87c-2.28.5-4.39.88-6.45,1.44a23.55,23.55,0,0,0-17.2,22.53c-.12,14.16,0,28.31,0,42.46v6h-24c-.33-.47-.69-.74-.69-1,.18-18.46-.67-37,.86-55.35,1.82-21.74,23.3-39.92,45.34-40.4A10.24,10.24,0,0,1,244.87,16.94Z"/><rect class="cls-1" x="830.39" y="16.39" width="24.54" height="96.69"/></g><g id="rv"><path class="cls-1" d="M164.11,75A12.15,12.15,0,0,0,160,65.38q-22.38-22.12-44.5-44.54a13,13,0,0,0-10.16-4.09c-30.48.11-60.95.05-91.43.08a25,25,0,0,0-6.44.51C3.05,18.54.08,21.42.06,26.2q-.12,38.73,0,77.46c0,5,3.18,7.93,8.86,8.7.06-1.17.12-2,.16-2.8C9.68,97.2,18.8,88,30.73,87.84c12.12-.2,21.78,8.91,22.26,21.46.14,3.64,1.8,4,4.66,4,12.49-.07,25,0,37.47,0h9.22c1.46-16.18,9-24.77,21.58-25.37,12.87-.62,20.5,7.37,23.65,24.75,8.78,1.66,14.16-2.52,14.4-11.58C164.2,92.36,163.87,83.69,164.11,75ZM37.17,40.33c-2,.82-3.64,4.6-4,7.23-.63,4.88-.18,9.9-.18,15.24H25.55c0-6.51-.74-13.32.2-19.9,1-7.15,7.76-11.63,14.88-11.25C41.2,35.2,42.08,38.34,37.17,40.33ZM56.58,80.78,41,50c8-1.66,8.13-1.61,11.11,4.74,1.33,2.82,2.73,5.6,4.45,9.12,1.74-3.57,3.14-6.37,4.47-9.19,3-6.33,3-6.35,11.11-4.68C67.05,60.08,62,70.07,56.58,80.78Zm78.06-17.05c-6.17.14-12.33.07-18.5.07-5.67,0-11.33,0-17,0-4.09.07-6.17-1.47-6-5.9.22-6.15,0-12.33.07-18.49,0-5.29,1.4-6.24,6.8-5.58A37.43,37.43,0,0,1,122.78,45.2c4.55,4.64,9.23,9.16,13.73,13.84.82.85,1.1,2.22,1.62,3.35C137,62.86,135.81,63.71,134.64,63.73Z"/><path class="cls-1" d="M31.27,89.84a20,20,0,1,0-.06,40,20,20,0,0,0,.06-40ZM31,117.75A7.92,7.92,0,1,1,39.06,110,8,8,0,0,1,31,117.75Z"/><path class="cls-1" d="M127.14,89.84A20,20,0,1,0,147,110.06,20.26,20.26,0,0,0,127.14,89.84Zm7.75,20.65a8.22,8.22,0,0,1-8.68,7.25,7.92,7.92,0,0,1,1.25-15.8A8.23,8.23,0,0,1,134.89,110.49Z"/><path class="cls-1" d="M100.13,13.65c-4.87,0-9.79.24-14.67-.08-3.31-.21-4.93-2.65-4.68-5.88C81.1,3.57,83.54,1,87.59.29,96.2-1.22,100.37,3.09,100.13,13.65Z"/></g></g></g></svg>