<svg id="Camada_1" data-name="Camada 1" xmlns="http://www.w3.org/2000/svg" viewBox="0 0 1000 1000"><defs><style>.cls-1{fill:#922132;}</style></defs><path class="cls-1" d="M792.74,410.91c-66.26,132.56-131.28,262.65-198,396.29C528,673.83,462.84,543.47,396.54,410.91c36.53,0,70.13-.47,103.67.54,4.51.17,10.51,7,13,12.19,25.39,53.13,50.17,106.52,75.19,159.81,1.58,3.44,3.57,6.67,6.8,12.6,8.86-18.76,16.7-35.34,24.48-51.94,19-40.63,37.81-81.36,57.24-121.78,2.26-4.65,7.85-10.81,12-10.92C722.4,410.54,755.94,410.91,792.74,410.91Z"/><path class="cls-1" d="M403.31,279.16c-.1,3.3-5.12,8.52-8.69,9.4-64.55,15.33-90,47.09-90.07,113.79q-.1,80.81,0,161.63V584.8H208.66c-.64-3.1-1.72-5.8-1.72-8.49-.07-67.34-2.49-134.78.57-202,4.65-102.68,86.94-179.59,196.17-185C403.68,219.94,404,249.55,403.31,279.16Z"/></svg>