<svg id="Redes" xmlns="http://www.w3.org/2000/svg" viewBox="0 0 256 256"><defs><style>.cls-1{fill:#e8e7e7;}</style></defs><g id="Whatsapp"><path class="cls-1" d="M255.06,120a128.14,128.14,0,0,0-2.1-18.32A125,125,0,0,0,163.2,4.5,114.59,114.59,0,0,0,143.68.85c-3.56-.33-7.13-.47-10.7-.7-.37,0-.74-.1-1.11-.15h-3.55c-.31.05-.63.13-.94.15-3.3.19-6.61.26-9.9.58a119.62,119.62,0,0,0-16.19,2.68,126.12,126.12,0,0,0-63.18,36.5A124.13,124.13,0,0,0,14.32,76.2a120.57,120.57,0,0,0-8.15,27.7,105,105,0,0,0-1.6,15.32c-.09,4.2-.2,8.43,0,12.62a122,122,0,0,0,17.85,57,1.68,1.68,0,0,1,0,1.68Q20,197.92,17.44,205.3l-11,32.09-6,17.4c-.1.29-.18.59-.32,1,1.87-.57,3.6-1.1,5.33-1.65l47.42-14.83c5.45-1.71,10.91-3.43,16.37-5.1a2,2,0,0,1,1.41.2A126.81,126.81,0,0,0,98,245.12a129.15,129.15,0,0,0,19.8,3.53,125.17,125.17,0,0,0,67.4-12.12,125.18,125.18,0,0,0,66.29-82,113.38,113.38,0,0,0,3-17.46c.22-2.41.31-4.83.54-7.24a25.57,25.57,0,0,1,.59-3l.36-1.7v-1A23,23,0,0,1,255.06,120Zm-19.41,11.23a102.11,102.11,0,0,1-4.15,23.3,103.29,103.29,0,0,1-29.15,46.69,104.57,104.57,0,0,1-46.3,25,90,90,0,0,1-17.8,2.79c-4.18.19-8.38.38-12.57.25a102,102,0,0,1-24.83-4A105.18,105.18,0,0,1,73.6,213.14a1.63,1.63,0,0,0-1.51-.18L44.34,221.6l-11.85,3.67c-.23.07-.46.12-.9.22.37-1.16.68-2.17,1-3.18q5.84-17.73,11.7-35.46a1.36,1.36,0,0,0-.21-1.38,102.94,102.94,0,0,1-18.84-48.22,105.07,105.07,0,0,1-.75-14A103.59,103.59,0,0,1,29.73,92,102.47,102.47,0,0,1,47,59.94a105.66,105.66,0,0,1,72-39.39,103.51,103.51,0,0,1,18.12-.37A105,105,0,0,1,190.4,38.59a103.9,103.9,0,0,1,36,42.82,101.6,101.6,0,0,1,8.17,27.33A104.41,104.41,0,0,1,235.65,131.22Z"/><path class="cls-1" d="M190.44,159A35.75,35.75,0,0,1,189,169.36c-1.36,4.21-4.18,7.32-7.73,9.86a37.67,37.67,0,0,1-17.33,6.85,29.41,29.41,0,0,1-12.09-1.14,189.37,189.37,0,0,1-27.28-10,90.06,90.06,0,0,1-22.26-15.15,159.42,159.42,0,0,1-28.91-35,49.86,49.86,0,0,1-7.19-18.62c-.31-2-.42-4.07-.62-6.11C65.7,90,69.81,81.73,77.13,74.94a10.36,10.36,0,0,1,7-2.87c2.41-.06,4.84,0,7.25.06a5.31,5.31,0,0,1,5,3.58c1.64,3.79,3.38,7.55,5,11.37,1.94,4.68,3.74,9.41,5.63,14.12a4.25,4.25,0,0,1,0,3,20.68,20.68,0,0,1-3.81,6.17c-1.53,1.9-3.13,3.73-4.69,5.6a3.5,3.5,0,0,0-1.09,3,4.33,4.33,0,0,0,.4,1.11,72,72,0,0,0,16.18,21,90.93,90.93,0,0,0,26.65,16.12c.59.25,1.21.44,1.79.72a2.71,2.71,0,0,0,3.15-.44,41.47,41.47,0,0,0,3.52-3.62c2.69-3.12,5.37-6.25,8-9.46a3.77,3.77,0,0,1,4.61-1.35c2.27.82,4.57,1.59,6.74,2.62,6.64,3.16,13.21,6.46,19.85,9.61A3.54,3.54,0,0,1,190.44,159Z"/></g></svg>